<svg class="railroad-diagram" height="1045" viewBox="0 0 468.5 1045" width="468.5" xmlns="http://www.w3.org/2000/svg" xmlns:xlink="http://www.w3.org/1999/xlink">
<g transform="translate(.5 .5)">
<g>
<path d="M20 93v20m10 -20v20m-10 -10h20" /></g><path d="M40 103h10" /><g>
<path d="M50 103h0.0" /><path d="M418.5 103h0.0" /><rect class="group-box" height="989" rx="10" ry="10" width="368.5" x="50" y="36"></rect><g>
<path d="M50.0 103h0.0" /><path d="M418.5 103h0.0" /><path d="M50.0 103a10 10 0 0 0 10 -10v-19a10 10 0 0 1 10 -10" /><g>
<path d="M70.0 64h53.25" /><path d="M345.25 64h53.25" /><g class="terminal ">
<path d="M123.25 64h0.0" /><path d="M185.75 64h0.0" /><rect height="22" rx="10" ry="10" width="62.5" x="123.25" y="53"></rect><text x="154.5" y="68">INT32</text></g><path d="M185.75 64h10" /><g>
<path d="M195.75 64h0.0" /><path d="M264.25 64h0.0" /><path d="M195.75 64a10 10 0 0 0 10 -10v0a10 10 0 0 1 10 -10" /><g>
<path d="M215.75 44h28.5" /></g><path d="M244.25 44a10 10 0 0 1 10 10v0a10 10 0 0 0 10 10" /><path d="M195.75 64h20" /><g class="terminal ">
<path d="M215.75 64h0.0" /><path d="M244.25 64h0.0" /><rect height="22" rx="10" ry="10" width="28.5" x="215.75" y="53"></rect><text x="230" y="68">-</text></g><path d="M244.25 64h20" /></g><path d="M264.25 64h10" /><g class="terminal ">
<path d="M274.25 64h0.0" /><path d="M345.25 64h0.0" /><rect height="22" rx="10" ry="10" width="71" x="274.25" y="53"></rect><text x="309.75" y="68">Number</text></g></g><path d="M398.5 64a10 10 0 0 1 10 10v19a10 10 0 0 0 10 10" /><path d="M50.0 103h20" /><g>
<path d="M70.0 103h53.25" /><path d="M345.25 103h53.25" /><g class="terminal ">
<path d="M123.25 103h0.0" /><path d="M185.75 103h0.0" /><rect height="22" rx="10" ry="10" width="62.5" x="123.25" y="92"></rect><text x="154.5" y="107">INT16</text></g><path d="M185.75 103h10" /><g>
<path d="M195.75 103h0.0" /><path d="M264.25 103h0.0" /><path d="M195.75 103a10 10 0 0 0 10 -10v0a10 10 0 0 1 10 -10" /><g>
<path d="M215.75 83h28.5" /></g><path d="M244.25 83a10 10 0 0 1 10 10v0a10 10 0 0 0 10 10" /><path d="M195.75 103h20" /><g class="terminal ">
<path d="M215.75 103h0.0" /><path d="M244.25 103h0.0" /><rect height="22" rx="10" ry="10" width="28.5" x="215.75" y="92"></rect><text x="230" y="107">-</text></g><path d="M244.25 103h20" /></g><path d="M264.25 103h10" /><g class="terminal ">
<path d="M274.25 103h0.0" /><path d="M345.25 103h0.0" /><rect height="22" rx="10" ry="10" width="71" x="274.25" y="92"></rect><text x="309.75" y="107">Number</text></g></g><path d="M398.5 103h20" /><path d="M50.0 103a10 10 0 0 1 10 10v19a10 10 0 0 0 10 10" /><g>
<path d="M70.0 142h59.75" /><path d="M338.75 142h59.75" /><g>
<path d="M129.75 142h0.0" /><path d="M240.75 142h0.0" /><path d="M129.75 142a10 10 0 0 0 10 -10v0a10 10 0 0 1 10 -10" /><g>
<path d="M149.75 122h71.0" /></g><path d="M220.75 122a10 10 0 0 1 10 10v0a10 10 0 0 0 10 10" /><path d="M129.75 142h20" /><g class="terminal ">
<path d="M149.75 142h0.0" /><path d="M220.75 142h0.0" /><rect height="22" rx="10" ry="10" width="71" x="149.75" y="131"></rect><text x="185.25" y="146">STRING</text></g><path d="M220.75 142h20" /></g><path d="M240.75 142h10" /><g class="terminal ">
<path d="M250.75 142h0.0" /><path d="M338.75 142h0.0" /><rect height="22" rx="10" ry="10" width="88" x="250.75" y="131"></rect><text x="294.75" y="146">&quot;String&quot;</text></g></g><path d="M398.5 142a10 10 0 0 0 10 -10v-19a10 10 0 0 1 10 -10" /><path d="M50.0 103a10 10 0 0 1 10 10v259a10 10 0 0 0 10 10" /><g>
<path d="M70.0 382h61.0" /><path d="M337.5 382h61.0" /><path d="M131.0 382a10 10 0 0 0 10 -10v-160a10 10 0 0 1 10 -10" /><g>
<path d="M151.0 202h0.0" /><path d="M317.5 202h0.0" /><g class="terminal ">
<path d="M151.0 202h0.0" /><path d="M205.0 202h0.0" /><rect height="22" rx="10" ry="10" width="54" x="151" y="191"></rect><text x="178" y="206">BOOL</text></g><path d="M205.0 202h10" /><g>
<path d="M215.0 202h0.0" /><path d="M317.5 202h0.0" /><path d="M215.0 202a10 10 0 0 0 10 -10v-10a10 10 0 0 1 10 -10" /><g class="terminal ">
<path d="M235.0 172h4.25" /><path d="M293.25 172h4.25" /><rect height="22" rx="10" ry="10" width="54" x="239.25" y="161"></rect><text x="266.25" y="176">true</text></g><path d="M297.5 172a10 10 0 0 1 10 10v10a10 10 0 0 0 10 10" /><path d="M215.0 202h20" /><g class="terminal ">
<path d="M235.0 202h0.0" /><path d="M297.5 202h0.0" /><rect height="22" rx="10" ry="10" width="62.5" x="235" y="191"></rect><text x="266.25" y="206">false</text></g><path d="M297.5 202h20" /><path d="M215.0 202a10 10 0 0 1 10 10v10a10 10 0 0 0 10 10" /><g class="terminal ">
<path d="M235.0 232h4.25" /><path d="M293.25 232h4.25" /><rect height="22" rx="10" ry="10" width="54" x="239.25" y="221"></rect><text x="266.25" y="236">True</text></g><path d="M297.5 232a10 10 0 0 0 10 -10v-10a10 10 0 0 1 10 -10" /><path d="M215.0 202a10 10 0 0 1 10 10v40a10 10 0 0 0 10 10" /><g class="terminal ">
<path d="M235.0 262h0.0" /><path d="M297.5 262h0.0" /><rect height="22" rx="10" ry="10" width="62.5" x="235" y="251"></rect><text x="266.25" y="266">False</text></g><path d="M297.5 262a10 10 0 0 0 10 -10v-40a10 10 0 0 1 10 -10" /><path d="M215.0 202a10 10 0 0 1 10 10v70a10 10 0 0 0 10 10" /><g class="terminal ">
<path d="M235.0 292h17.0" /><path d="M280.5 292h17.0" /><rect height="22" rx="10" ry="10" width="28.5" x="252" y="281"></rect><text x="266.25" y="296">1</text></g><path d="M297.5 292a10 10 0 0 0 10 -10v-70a10 10 0 0 1 10 -10" /><path d="M215.0 202a10 10 0 0 1 10 10v100a10 10 0 0 0 10 10" /><g class="terminal ">
<path d="M235.0 322h17.0" /><path d="M280.5 322h17.0" /><rect height="22" rx="10" ry="10" width="28.5" x="252" y="311"></rect><text x="266.25" y="326">0</text></g><path d="M297.5 322a10 10 0 0 0 10 -10v-100a10 10 0 0 1 10 -10" /></g></g><path d="M317.5 202a10 10 0 0 1 10 10v160a10 10 0 0 0 10 10" /><path d="M131.0 382h20" /><g>
<path d="M151.0 382h32.0" /><path d="M285.5 382h32.0" /><path d="M183.0 382a10 10 0 0 0 10 -10v-10a10 10 0 0 1 10 -10" /><g class="terminal ">
<path d="M203.0 352h4.25" /><path d="M261.25 352h4.25" /><rect height="22" rx="10" ry="10" width="54" x="207.25" y="341"></rect><text x="234.25" y="356">true</text></g><path d="M265.5 352a10 10 0 0 1 10 10v10a10 10 0 0 0 10 10" /><path d="M183.0 382h20" /><g class="terminal ">
<path d="M203.0 382h0.0" /><path d="M265.5 382h0.0" /><rect height="22" rx="10" ry="10" width="62.5" x="203" y="371"></rect><text x="234.25" y="386">false</text></g><path d="M265.5 382h20" /><path d="M183.0 382a10 10 0 0 1 10 10v10a10 10 0 0 0 10 10" /><g class="terminal ">
<path d="M203.0 412h4.25" /><path d="M261.25 412h4.25" /><rect height="22" rx="10" ry="10" width="54" x="207.25" y="401"></rect><text x="234.25" y="416">True</text></g><path d="M265.5 412a10 10 0 0 0 10 -10v-10a10 10 0 0 1 10 -10" /><path d="M183.0 382a10 10 0 0 1 10 10v40a10 10 0 0 0 10 10" /><g class="terminal ">
<path d="M203.0 442h0.0" /><path d="M265.5 442h0.0" /><rect height="22" rx="10" ry="10" width="62.5" x="203" y="431"></rect><text x="234.25" y="446">False</text></g><path d="M265.5 442a10 10 0 0 0 10 -10v-40a10 10 0 0 1 10 -10" /></g><path d="M317.5 382h20" /></g><path d="M398.5 382a10 10 0 0 0 10 -10v-259a10 10 0 0 1 10 -10" /><path d="M50.0 103a10 10 0 0 1 10 10v358a10 10 0 0 0 10 10" /><g>
<path d="M70.0 481h38.25" /><path d="M360.25 481h38.25" /><g>
<path d="M108.25 481h0.0" /><path d="M210.75 481h0.0" /><path d="M108.25 481a10 10 0 0 0 10 -10v0a10 10 0 0 1 10 -10" /><g>
<path d="M128.25 461h62.5" /></g><path d="M190.75 461a10 10 0 0 1 10 10v0a10 10 0 0 0 10 10" /><path d="M108.25 481h20" /><g class="terminal ">
<path d="M128.25 481h0.0" /><path d="M190.75 481h0.0" /><rect height="22" rx="10" ry="10" width="62.5" x="128.25" y="470"></rect><text x="159.5" y="485">INT64</text></g><path d="M190.75 481h20" /></g><g>
<path d="M210.75 481h0.0" /><path d="M279.25 481h0.0" /><path d="M210.75 481a10 10 0 0 0 10 -10v0a10 10 0 0 1 10 -10" /><g>
<path d="M230.75 461h28.5" /></g><path d="M259.25 461a10 10 0 0 1 10 10v0a10 10 0 0 0 10 10" /><path d="M210.75 481h20" /><g class="terminal ">
<path d="M230.75 481h0.0" /><path d="M259.25 481h0.0" /><rect height="22" rx="10" ry="10" width="28.5" x="230.75" y="470"></rect><text x="245" y="485">-</text></g><path d="M259.25 481h20" /></g><path d="M279.25 481h10" /><g class="terminal ">
<path d="M289.25 481h0.0" /><path d="M360.25 481h0.0" /><rect height="22" rx="10" ry="10" width="71" x="289.25" y="470"></rect><text x="324.75" y="485">Number</text></g></g><path d="M398.5 481a10 10 0 0 0 10 -10v-358a10 10 0 0 1 10 -10" /><path d="M50.0 103a10 10 0 0 1 10 10v388a10 10 0 0 0 10 10" /><g>
<path d="M70.0 511h83.25" /><path d="M315.25 511h83.25" /><g class="terminal ">
<path d="M153.25 511h0.0" /><path d="M224.25 511h0.0" /><rect height="22" rx="10" ry="10" width="71" x="153.25" y="500"></rect><text x="188.75" y="515">UINT16</text></g><path d="M224.25 511h10" /><path d="M234.25 511h10" /><g class="terminal ">
<path d="M244.25 511h0.0" /><path d="M315.25 511h0.0" /><rect height="22" rx="10" ry="10" width="71" x="244.25" y="500"></rect><text x="279.75" y="515">Number</text></g></g><path d="M398.5 511a10 10 0 0 0 10 -10v-388a10 10 0 0 1 10 -10" /><path d="M50.0 103a10 10 0 0 1 10 10v418a10 10 0 0 0 10 10" /><g>
<path d="M70.0 541h83.25" /><path d="M315.25 541h83.25" /><g class="terminal ">
<path d="M153.25 541h0.0" /><path d="M224.25 541h0.0" /><rect height="22" rx="10" ry="10" width="71" x="153.25" y="530"></rect><text x="188.75" y="545">UINT32</text></g><path d="M224.25 541h10" /><path d="M234.25 541h10" /><g class="terminal ">
<path d="M244.25 541h0.0" /><path d="M315.25 541h0.0" /><rect height="22" rx="10" ry="10" width="71" x="244.25" y="530"></rect><text x="279.75" y="545">Number</text></g></g><path d="M398.5 541a10 10 0 0 0 10 -10v-418a10 10 0 0 1 10 -10" /><path d="M50.0 103a10 10 0 0 1 10 10v448a10 10 0 0 0 10 10" /><g>
<path d="M70.0 571h83.25" /><path d="M315.25 571h83.25" /><g class="terminal ">
<path d="M153.25 571h0.0" /><path d="M224.25 571h0.0" /><rect height="22" rx="10" ry="10" width="71" x="153.25" y="560"></rect><text x="188.75" y="575">UINT64</text></g><path d="M224.25 571h10" /><path d="M234.25 571h10" /><g class="terminal ">
<path d="M244.25 571h0.0" /><path d="M315.25 571h0.0" /><rect height="22" rx="10" ry="10" width="71" x="244.25" y="560"></rect><text x="279.75" y="575">Number</text></g></g><path d="M398.5 571a10 10 0 0 0 10 -10v-448a10 10 0 0 1 10 -10" /><path d="M50.0 103a10 10 0 0 1 10 10v487a10 10 0 0 0 10 10" /><g>
<path d="M70.0 610h19.25" /><path d="M379.25 610h19.25" /><g class="terminal ">
<path d="M89.25 610h0.0" /><path d="M151.75 610h0.0" /><rect height="22" rx="10" ry="10" width="62.5" x="89.25" y="599"></rect><text x="120.5" y="614">FLOAT</text></g><path d="M151.75 610h10" /><g>
<path d="M161.75 610h0.0" /><path d="M230.25 610h0.0" /><path d="M161.75 610a10 10 0 0 0 10 -10v0a10 10 0 0 1 10 -10" /><g>
<path d="M181.75 590h28.5" /></g><path d="M210.25 590a10 10 0 0 1 10 10v0a10 10 0 0 0 10 10" /><path d="M161.75 610h20" /><g class="terminal ">
<path d="M181.75 610h0.0" /><path d="M210.25 610h0.0" /><rect height="22" rx="10" ry="10" width="28.5" x="181.75" y="599"></rect><text x="196" y="614">-</text></g><path d="M210.25 610h20" /></g><path d="M230.25 610h10" /><g class="terminal ">
<path d="M240.25 610h0.0" /><path d="M379.25 610h0.0" /><rect height="22" rx="10" ry="10" width="139" x="240.25" y="599"></rect><text x="309.75" y="614">Floating Point</text></g></g><path d="M398.5 610a10 10 0 0 0 10 -10v-487a10 10 0 0 1 10 -10" /><path d="M50.0 103a10 10 0 0 1 10 10v526a10 10 0 0 0 10 10" /><g>
<path d="M70.0 649h0.0" /><path d="M398.5 649h0.0" /><g>
<path d="M70.0 649h0.0" /><path d="M181.0 649h0.0" /><path d="M70.0 649a10 10 0 0 0 10 -10v0a10 10 0 0 1 10 -10" /><g>
<path d="M90.0 629h71.0" /></g><path d="M161.0 629a10 10 0 0 1 10 10v0a10 10 0 0 0 10 10" /><path d="M70.0 649h20" /><g class="terminal ">
<path d="M90.0 649h0.0" /><path d="M161.0 649h0.0" /><rect height="22" rx="10" ry="10" width="71" x="90" y="638"></rect><text x="125.5" y="653">DOUBLE</text></g><path d="M161.0 649h20" /></g><g>
<path d="M181.0 649h0.0" /><path d="M249.5 649h0.0" /><path d="M181.0 649a10 10 0 0 0 10 -10v0a10 10 0 0 1 10 -10" /><g>
<path d="M201.0 629h28.5" /></g><path d="M229.5 629a10 10 0 0 1 10 10v0a10 10 0 0 0 10 10" /><path d="M181.0 649h20" /><g class="terminal ">
<path d="M201.0 649h0.0" /><path d="M229.5 649h0.0" /><rect height="22" rx="10" ry="10" width="28.5" x="201" y="638"></rect><text x="215.25" y="653">-</text></g><path d="M229.5 649h20" /></g><path d="M249.5 649h10" /><g class="terminal ">
<path d="M259.5 649h0.0" /><path d="M398.5 649h0.0" /><rect height="22" rx="10" ry="10" width="139" x="259.5" y="638"></rect><text x="329" y="653">Floating Point</text></g></g><path d="M398.5 649a10 10 0 0 0 10 -10v-526a10 10 0 0 1 10 -10" /><path d="M50.0 103a10 10 0 0 1 10 10v565a10 10 0 0 0 10 10" /><g>
<path d="M70.0 688h68.25" /><path d="M330.25 688h68.25" /><g>
<path d="M138.25 688h0.0" /><path d="M249.25 688h0.0" /><path d="M138.25 688a10 10 0 0 0 10 -10v0a10 10 0 0 1 10 -10" /><g>
<path d="M158.25 668h71.0" /></g><path d="M229.25 668a10 10 0 0 1 10 10v0a10 10 0 0 0 10 10" /><path d="M138.25 688h20" /><g class="terminal ">
<path d="M158.25 688h0.0" /><path d="M229.25 688h0.0" /><rect height="22" rx="10" ry="10" width="71" x="158.25" y="677"></rect><text x="193.75" y="692">NODEID</text></g><path d="M229.25 688h20" /></g><path d="M249.25 688h10" /><g class="terminal ">
<path d="M259.25 688h0.0" /><path d="M330.25 688h0.0" /><rect height="22" rx="10" ry="10" width="71" x="259.25" y="677"></rect><text x="294.75" y="692">NodeId</text></g></g><path d="M398.5 688a10 10 0 0 0 10 -10v-565a10 10 0 0 1 10 -10" /><path d="M50.0 103a10 10 0 0 1 10 10v604a10 10 0 0 0 10 10" /><g>
<path d="M70.0 727h53.25" /><path d="M345.25 727h53.25" /><g class="terminal ">
<path d="M123.25 727h0.0" /><path d="M185.75 727h0.0" /><rect height="22" rx="10" ry="10" width="62.5" x="123.25" y="716"></rect><text x="154.5" y="731">SBYTE</text></g><path d="M185.75 727h10" /><g>
<path d="M195.75 727h0.0" /><path d="M264.25 727h0.0" /><path d="M195.75 727a10 10 0 0 0 10 -10v0a10 10 0 0 1 10 -10" /><g>
<path d="M215.75 707h28.5" /></g><path d="M244.25 707a10 10 0 0 1 10 10v0a10 10 0 0 0 10 10" /><path d="M195.75 727h20" /><g class="terminal ">
<path d="M215.75 727h0.0" /><path d="M244.25 727h0.0" /><rect height="22" rx="10" ry="10" width="28.5" x="215.75" y="716"></rect><text x="230" y="731">-</text></g><path d="M244.25 727h20" /></g><path d="M264.25 727h10" /><g class="terminal ">
<path d="M274.25 727h0.0" /><path d="M345.25 727h0.0" /><rect height="22" rx="10" ry="10" width="71" x="274.25" y="716"></rect><text x="309.75" y="731">Number</text></g></g><path d="M398.5 727a10 10 0 0 0 10 -10v-604a10 10 0 0 1 10 -10" /><path d="M50.0 103a10 10 0 0 1 10 10v634a10 10 0 0 0 10 10" /><g>
<path d="M70.0 757h91.75" /><path d="M306.75 757h91.75" /><g class="terminal ">
<path d="M161.75 757h0.0" /><path d="M215.75 757h0.0" /><rect height="22" rx="10" ry="10" width="54" x="161.75" y="746"></rect><text x="188.75" y="761">BYTE</text></g><path d="M215.75 757h10" /><path d="M225.75 757h10" /><g class="terminal ">
<path d="M235.75 757h0.0" /><path d="M306.75 757h0.0" /><rect height="22" rx="10" ry="10" width="71" x="235.75" y="746"></rect><text x="271.25" y="761">Number</text></g></g><path d="M398.5 757a10 10 0 0 0 10 -10v-634a10 10 0 0 1 10 -10" /><path d="M50.0 103a10 10 0 0 1 10 10v664a10 10 0 0 0 10 10" /><g>
<path d="M70.0 787h45.0" /><path d="M353.5 787h45.0" /><g class="terminal ">
<path d="M115.0 787h0.0" /><path d="M169.0 787h0.0" /><rect height="22" rx="10" ry="10" width="54" x="115" y="776"></rect><text x="142" y="791">TIME</text></g><path d="M169.0 787h10" /><path d="M179.0 787h10" /><g class="terminal ">
<path d="M189.0 787h0.0" /><path d="M353.5 787h0.0" /><rect height="22" rx="10" ry="10" width="164.5" x="189" y="776"></rect><text x="271.25" y="791">&quot;TimeValueString&quot;</text></g></g><path d="M398.5 787a10 10 0 0 0 10 -10v-664a10 10 0 0 1 10 -10" /><path d="M50.0 103a10 10 0 0 1 10 10v694a10 10 0 0 0 10 10" /><g>
<path d="M70.0 817h70.5" /><path d="M328.0 817h70.5" /><g class="terminal ">
<path d="M140.5 817h0.0" /><path d="M194.5 817h0.0" /><rect height="22" rx="10" ry="10" width="54" x="140.5" y="806"></rect><text x="167.5" y="821">GUID</text></g><path d="M194.5 817h10" /><path d="M204.5 817h10" /><g class="terminal ">
<path d="M214.5 817h0.0" /><path d="M328.0 817h0.0" /><rect height="22" rx="10" ry="10" width="113.5" x="214.5" y="806"></rect><text x="271.25" y="821">GUID-String</text></g></g><path d="M398.5 817a10 10 0 0 0 10 -10v-694a10 10 0 0 1 10 -10" /><path d="M50.0 103a10 10 0 0 1 10 10v724a10 10 0 0 0 10 10" /><g>
<path d="M70.0 847h53.5" /><path d="M345.0 847h53.5" /><g class="terminal ">
<path d="M123.5 847h0.0" /><path d="M203.0 847h0.0" /><rect height="22" rx="10" ry="10" width="79.5" x="123.5" y="836"></rect><text x="163.25" y="851">BSTRING</text></g><path d="M203.0 847h10" /><path d="M213.0 847h10" /><g class="terminal ">
<path d="M223.0 847h0.0" /><path d="M345.0 847h0.0" /><rect height="22" rx="10" ry="10" width="122" x="223" y="836"></rect><text x="284" y="851">&quot;ByteString&quot;</text></g></g><path d="M398.5 847a10 10 0 0 0 10 -10v-724a10 10 0 0 1 10 -10" /><path d="M50.0 103a10 10 0 0 1 10 10v784a10 10 0 0 0 10 10" /><g>
<path d="M70.0 907h42.75" /><path d="M355.75 907h42.75" /><g class="terminal ">
<path d="M112.75 907h0.0" /><path d="M217.75 907h0.0" /><rect height="22" rx="10" ry="10" width="105" x="112.75" y="896"></rect><text x="165.25" y="911">STATUSCODE</text></g><path d="M217.75 907h10" /><g>
<path d="M227.75 907h0.0" /><path d="M355.75 907h0.0" /><path d="M227.75 907a10 10 0 0 0 10 -10v-10a10 10 0 0 1 10 -10" /><g class="terminal ">
<path d="M247.75 877h8.5" /><path d="M327.25 877h8.5" /><rect height="22" rx="10" ry="10" width="71" x="256.25" y="866"></rect><text x="291.75" y="881">Number</text></g><path d="M335.75 877a10 10 0 0 1 10 10v10a10 10 0 0 0 10 10" /><path d="M227.75 907h20" /><g class="terminal ">
<path d="M247.75 907h0.0" /><path d="M335.75 907h0.0" /><rect height="22" rx="10" ry="10" width="88" x="247.75" y="896"></rect><text x="291.75" y="911">&quot;String&quot;</text></g><path d="M335.75 907h20" /></g></g><path d="M398.5 907a10 10 0 0 0 10 -10v-784a10 10 0 0 1 10 -10" /><path d="M50.0 103a10 10 0 0 1 10 10v814a10 10 0 0 0 10 10" /><g>
<path d="M70.0 937h62.0" /><path d="M336.5 937h62.0" /><g class="terminal ">
<path d="M132.0 937h0.0" /><path d="M228.5 937h0.0" /><rect height="22" rx="10" ry="10" width="96.5" x="132" y="926"></rect><text x="180.25" y="941">EXPNODEID</text></g><path d="M228.5 937h10" /><path d="M238.5 937h10" /><g class="terminal ">
<path d="M248.5 937h0.0" /><path d="M336.5 937h0.0" /><rect height="22" rx="10" ry="10" width="88" x="248.5" y="926"></rect><text x="292.5" y="941">&quot;String&quot;</text></g></g><path d="M398.5 937a10 10 0 0 0 10 -10v-814a10 10 0 0 1 10 -10" /><path d="M50.0 103a10 10 0 0 1 10 10v853a10 10 0 0 0 10 10" /><g>
<path d="M70.0 976h8.75" /><path d="M389.75 976h8.75" /><g>
<path d="M78.75 976h0.0" /><path d="M181.25 976h0.0" /><path d="M78.75 976a10 10 0 0 0 10 -10v0a10 10 0 0 1 10 -10" /><g>
<path d="M98.75 956h62.5" /></g><path d="M161.25 956a10 10 0 0 1 10 10v0a10 10 0 0 0 10 10" /><path d="M78.75 976h20" /><g class="terminal ">
<path d="M98.75 976h0.0" /><path d="M161.25 976h0.0" /><rect height="22" rx="10" ry="10" width="62.5" x="98.75" y="965"></rect><text x="130" y="980">QNAME</text></g><path d="M161.25 976h20" /></g><path d="M181.25 976h10" /><g class="terminal ">
<path d="M191.25 976h0.0" /><path d="M389.75 976h0.0" /><rect height="22" rx="10" ry="10" width="198.5" x="191.25" y="965"></rect><text x="290.5" y="980">&quot;relativePathElement&quot;</text></g></g><path d="M398.5 976a10 10 0 0 0 10 -10v-853a10 10 0 0 1 10 -10" /><path d="M50.0 103a10 10 0 0 1 10 10v883a10 10 0 0 0 10 10" /><g>
<path d="M70.0 1006h62.0" /><path d="M336.5 1006h62.0" /><g class="terminal ">
<path d="M132.0 1006h0.0" /><path d="M228.5 1006h0.0" /><rect height="22" rx="10" ry="10" width="96.5" x="132" y="995"></rect><text x="180.25" y="1010">LOCALIZED</text></g><path d="M228.5 1006h10" /><path d="M238.5 1006h10" /><g class="terminal ">
<path d="M248.5 1006h0.0" /><path d="M336.5 1006h0.0" /><rect height="22" rx="10" ry="10" width="88" x="248.5" y="995"></rect><text x="292.5" y="1010">&quot;String&quot;</text></g></g><path d="M398.5 1006a10 10 0 0 0 10 -10v-883a10 10 0 0 1 10 -10" /></g><g class="non-terminal ">
<path d="M50.0 28h0.0" /><path d="M109.0 28h0.0" /><text class="comment" x="79.5" y="33">Literal</text></g></g><path d="M418.5 103h10" /><path d="M 428.5 103 h 20 m -10 -10 v 20 m 10 -20 v 20"></path></g><style>/* <![CDATA[ */
	svg.railroad-diagram {
		background-color:hsl(30,20%,95%);
	}
	svg.railroad-diagram path {
		stroke-width:3;
		stroke:black;
		fill:rgba(0,0,0,0);
	}
	svg.railroad-diagram text {
		font:bold 14px monospace;
		text-anchor:middle;
	}
	svg.railroad-diagram text.label{
		text-anchor:start;
	}
	svg.railroad-diagram text.comment{
		font:italic 12px monospace;
	}
	svg.railroad-diagram rect{
		stroke-width:3;
		stroke:black;
		fill:hsl(120,100%,90%);
	}
	svg.railroad-diagram rect.group-box {
		stroke: gray;
		stroke-dasharray: 10 5;
		fill: none;
	}

/* ]]> */
</style></svg>