<svg class="railroad-diagram" height="312" viewBox="0 0 592.5 312" width="592.5" xmlns="http://www.w3.org/2000/svg" xmlns:xlink="http://www.w3.org/1999/xlink">
<g transform="translate(.5 .5)">
<g>
<path d="M20 131v20m10 -20v20m-10 -10h20" /></g><path d="M40 141h10" /><g>
<path d="M50 141h0.0" /><path d="M542.5 141h0.0" /><rect class="group-box" height="256" rx="10" ry="10" width="492.5" x="50" y="36"></rect><g>
<path d="M50.0 141h10.0" /><path d="M532.5 141h10.0" /><g>
<path d="M60.0 141h0.0" /><path d="M285.0 141h0.0" /><path d="M60.0 141a10 10 0 0 0 10 -10v0a10 10 0 0 1 10 -10" /><g>
<path d="M80.0 121h185.0" /></g><path d="M265.0 121a10 10 0 0 1 10 10v0a10 10 0 0 0 10 10" /><path d="M60.0 141h20" /><g>
<path d="M80.0 141h0.0" /><path d="M265.0 141h0.0" /><g class="terminal ">
<path d="M80.0 141h0.0" /><path d="M125.5 141h0.0" /><rect height="22" rx="10" ry="10" width="45.5" x="80" y="130"></rect><text x="102.75" y="145">ns=</text></g><path d="M125.5 141h10" /><path d="M135.5 141h10" /><g class="terminal ">
<path d="M145.5 141h0.0" /><path d="M216.5 141h0.0" /><rect height="22" rx="10" ry="10" width="71" x="145.5" y="130"></rect><text x="181" y="145">Number</text></g><path d="M216.5 141h10" /><path d="M226.5 141h10" /><g class="terminal ">
<path d="M236.5 141h0.0" /><path d="M265.0 141h0.0" /><rect height="22" rx="10" ry="10" width="28.5" x="236.5" y="130"></rect><text x="250.75" y="145">;</text></g></g><path d="M265.0 141h20" /></g><g>
<path d="M285.0 141h0.0" /><path d="M532.5 141h0.0" /><path d="M285.0 141a10 10 0 0 0 10 -10v-42a10 10 0 0 1 10 -10" /><g>
<path d="M305.0 79h41.25" /><path d="M471.25 79h41.25" /><rect class="group-box" height="38" rx="10" ry="10" width="125" x="346.25" y="60"></rect><g>
<path d="M346.25 79h10.0" /><path d="M461.25 79h10.0" /><g class="terminal ">
<path d="M356.25 79h0.0" /><path d="M461.25 79h0.0" /><rect height="22" rx="10" ry="10" width="105" x="356.25" y="68"></rect><text x="408.75" y="83">s=&quot;String&quot;</text></g></g><g class="non-terminal ">
<path d="M346.25 52h0.0" /><path d="M447.25 52h0.0" /><text class="comment" x="396.75" y="57">String NodeId</text></g></g><path d="M512.5 79a10 10 0 0 1 10 10v42a10 10 0 0 0 10 10" /><path d="M285.0 141h20" /><g>
<path d="M305.0 141h39.25" /><path d="M473.25 141h39.25" /><rect class="group-box" height="38" rx="10" ry="10" width="129" x="344.25" y="122"></rect><g>
<path d="M344.25 141h12.0" /><path d="M461.25 141h12.0" /><g class="terminal ">
<path d="M356.25 141h0.0" /><path d="M461.25 141h0.0" /><rect height="22" rx="10" ry="10" width="105" x="356.25" y="130"></rect><text x="408.75" y="145">b=&quot;String&quot;</text></g></g><g class="non-terminal ">
<path d="M344.25 114h0.0" /><path d="M473.25 114h0.0" /><text class="comment" x="408.75" y="119">Bytestring NodeId</text></g></g><path d="M512.5 141h20" /><path d="M285.0 141a10 10 0 0 1 10 10v42a10 10 0 0 0 10 10" /><g>
<path d="M305.0 203h29.75" /><path d="M482.75 203h29.75" /><rect class="group-box" height="38" rx="10" ry="10" width="148" x="334.75" y="184"></rect><g>
<path d="M334.75 203h10.0" /><path d="M472.75 203h10.0" /><g class="terminal ">
<path d="M344.75 203h0.0" /><path d="M381.75 203h0.0" /><rect height="22" rx="10" ry="10" width="37" x="344.75" y="192"></rect><text x="363.25" y="207">i=</text></g><path d="M381.75 203h10" /><path d="M391.75 203h10" /><g class="terminal ">
<path d="M401.75 203h0.0" /><path d="M472.75 203h0.0" /><rect height="22" rx="10" ry="10" width="71" x="401.75" y="192"></rect><text x="437.25" y="207">Number</text></g></g><g class="non-terminal ">
<path d="M334.75 176h0.0" /><path d="M442.75 176h0.0" /><text class="comment" x="388.75" y="181">Numeric NodeId</text></g></g><path d="M512.5 203a10 10 0 0 0 10 -10v-42a10 10 0 0 1 10 -10" /><path d="M285.0 141a10 10 0 0 1 10 10v104a10 10 0 0 0 10 10" /><g>
<path d="M305.0 265h0.0" /><path d="M512.5 265h0.0" /><rect class="group-box" height="38" rx="10" ry="10" width="207.5" x="305" y="246"></rect><g>
<path d="M305.0 265h10.0" /><path d="M502.5 265h10.0" /><g class="terminal ">
<path d="M315.0 265h0.0" /><path d="M352.0 265h0.0" /><rect height="22" rx="10" ry="10" width="37" x="315" y="254"></rect><text x="333.5" y="269">g=</text></g><path d="M352.0 265h10" /><path d="M362.0 265h10" /><g class="terminal ">
<path d="M372.0 265h0.0" /><path d="M502.5 265h0.0" /><rect height="22" rx="10" ry="10" width="130.5" x="372" y="254"></rect><text x="437.25" y="269">&quot;GUID-String&quot;</text></g></g><g class="non-terminal ">
<path d="M305.0 238h0.0" /><path d="M392.0 238h0.0" /><text class="comment" x="348.5" y="243">GUID NodeId</text></g></g><path d="M512.5 265a10 10 0 0 0 10 -10v-104a10 10 0 0 1 10 -10" /></g></g><g class="non-terminal ">
<path d="M50.0 28h0.0" /><path d="M102.0 28h0.0" /><text class="comment" x="76" y="33">NodeId</text></g></g><path d="M542.5 141h10" /><path d="M 552.5 141 h 20 m -10 -10 v 20 m 10 -20 v 20"></path></g><style>/* <![CDATA[ */
	svg.railroad-diagram {
		background-color:hsl(30,20%,95%);
	}
	svg.railroad-diagram path {
		stroke-width:3;
		stroke:black;
		fill:rgba(0,0,0,0);
	}
	svg.railroad-diagram text {
		font:bold 14px monospace;
		text-anchor:middle;
	}
	svg.railroad-diagram text.label{
		text-anchor:start;
	}
	svg.railroad-diagram text.comment{
		font:italic 12px monospace;
	}
	svg.railroad-diagram rect{
		stroke-width:3;
		stroke:black;
		fill:hsl(120,100%,90%);
	}
	svg.railroad-diagram rect.group-box {
		stroke: gray;
		stroke-dasharray: 10 5;
		fill: none;
	}

/* ]]> */
</style></svg>