<?xml version="1.0" encoding="UTF-8" standalone="no"?>
<!-- Created with Inkscape (http://www.inkscape.org/) -->

<svg
   width="104.69646mm"
   height="19.072048mm"
   viewBox="0 0 104.69646 19.072048"
   version="1.1"
   id="svg1"
   inkscape:version="1.4 (86a8ad7, 2024-10-11)"
   sodipodi:docname="251028 open62541 logo.svg"
   xmlns:inkscape="http://www.inkscape.org/namespaces/inkscape"
   xmlns:sodipodi="http://sodipodi.sourceforge.net/DTD/sodipodi-0.dtd"
   xmlns="http://www.w3.org/2000/svg"
   xmlns:svg="http://www.w3.org/2000/svg">
  <sodipodi:namedview
     id="namedview1"
     pagecolor="#ffffff"
     bordercolor="#000000"
     borderopacity="0.25"
     inkscape:showpageshadow="2"
     inkscape:pageopacity="0.0"
     inkscape:pagecheckerboard="0"
     inkscape:deskcolor="#d1d1d1"
     inkscape:document-units="mm"
     inkscape:zoom="1.6221083"
     inkscape:cx="198.50709"
     inkscape:cy="103.87716"
     inkscape:window-width="1920"
     inkscape:window-height="1111"
     inkscape:window-x="-9"
     inkscape:window-y="-9"
     inkscape:window-maximized="1"
     inkscape:current-layer="layer1" />
  <defs
     id="defs1" />
  <g
     inkscape:label="Ebene 1"
     inkscape:groupmode="layer"
     id="layer1"
     transform="translate(-60.627357,-79.143239)">
    <path
       d="m 68.04778,85.156998 c 1.604036,0 2.750564,1.289844 2.750564,3.682118 0,2.392274 -1.146528,3.660069 -2.750564,3.660069 -1.609549,0 -2.756077,-1.267795 -2.756077,-3.660069 0,-2.392274 1.146528,-3.682118 2.756077,-3.682118 z m 0,9.629731 c 2.877343,0 5.71059,-1.967839 5.71059,-5.947613 0,-4.001823 -2.833247,-5.969661 -5.71059,-5.969661 -2.882856,0 -5.716103,1.967838 -5.716103,5.969661 0,3.979774 2.833247,5.947613 5.716103,5.947613 z m 0,0"
       id="path10"
       style="fill:#000000;fill-opacity:1;stroke-width:0.352778" />
    <path
       d="m 80.768946,92.543283 c -1.609548,0 -2.667882,-1.378039 -2.667882,-3.726216 0,-2.287543 1.058334,-3.704166 2.667882,-3.704166 1.521354,0 2.601736,1.504817 2.601736,3.726215 0,2.221397 -1.080382,3.704167 -2.601736,3.704167 z m -2.563151,5.672005 v -5.142839 c 0.738629,1.267795 2.07257,1.71428 3.257682,1.71428 2.71198,0 4.977474,-2.326129 4.977474,-5.969662 0,-3.577387 -2.204861,-5.947612 -4.955425,-5.947612 -1.438672,0 -2.667882,0.633897 -3.279731,1.714279 v -1.46072 h -2.921441 v 15.092274 z m 0,0"
       id="path14"
       style="fill:#000000;fill-opacity:1;stroke-width:0.352778" />
    <path
       d="m 98.545639,89.621842 c 0.104731,-4.023872 -2.07257,-6.752387 -5.589323,-6.752387 -3.362413,0 -5.71059,2.519053 -5.71059,5.903515 0,3.285243 2.138715,6.013759 5.798784,6.013759 3.108855,0 4.7625,-1.885157 5.374349,-3.577387 h -3.004123 c -0.595312,0.992187 -1.482769,1.311892 -2.392274,1.311892 -1.394575,0 -2.711979,-0.953603 -2.877344,-2.899392 z M 92.93978,85.00817 c 1.223697,0 2.579687,0.677995 2.645833,2.601736 h -5.40191 c 0.237023,-1.923741 1.653646,-2.601736 2.756077,-2.601736 z m 0,0"
       id="path18"
       style="fill:#000000;fill-opacity:1;stroke-width:0.352778" />
    <path
       d="m 103.01313,83.123014 h -2.92145 v 11.388107 h 2.92145 v -5.925564 c 0,-1.802474 0.42443,-3.367925 2.34817,-3.367925 1.65365,0 1.96784,1.289843 1.96784,2.750564 v 6.542925 h 2.92144 v -7.176823 c 0,-2.811198 -1.20716,-4.464843 -3.93568,-4.464843 -1.41662,0 -2.64583,0.595312 -3.30177,1.758376 z m 0,0"
       id="path12"
       style="fill:#000000;fill-opacity:1;stroke-width:0.352778" />
    <path
       d="m 112.32977,90.167545 c 0,-0.771702 0.13367,-1.488282 0.40238,-2.14974 0.26734,-0.664214 0.58429,-1.300868 0.94809,-1.907205 l 4.08451,-6.587022 h 1.75838 l -4.20578,6.542925 0.0386,0.0441 c 0.22738,-0.172254 0.54295,-0.305924 0.94809,-0.402387 0.4079,-0.09922 0.80477,-0.148828 1.19062,-0.148828 0.6463,0 1.24851,0.112999 1.80799,0.336241 0.55811,0.224621 1.03904,0.538813 1.44418,0.942579 0.4079,0.401009 0.72899,0.887456 0.96463,1.46072 0.23427,0.573264 0.35278,1.196137 0.35278,1.86862 0,0.713824 -0.12127,1.358745 -0.3638,1.934765 -0.23978,0.573264 -0.5774,1.066602 -1.01424,1.477257 -0.43822,0.407899 -0.9536,0.727604 -1.54891,0.959115 -0.59256,0.234266 -1.23886,0.352778 -1.94028,0.352778 -0.7028,0 -1.35324,-0.118512 -1.9513,-0.352778 -0.59532,-0.231511 -1.1107,-0.551216 -1.54341,-0.959115 -0.43408,-0.410655 -0.7717,-0.903993 -1.01423,-1.477257 -0.23978,-0.57602 -0.35829,-1.220941 -0.35829,-1.934765 z m 8.2131,0 c 0,-0.474045 -0.0799,-0.917774 -0.23702,-1.333941 -0.15847,-0.418924 -0.38309,-0.778592 -0.67248,-1.080382 -0.28663,-0.304547 -0.63803,-0.542947 -1.05282,-0.71658 -0.41204,-0.172255 -0.87368,-0.259071 -1.38355,-0.259071 -0.51125,0 -0.97565,0.08682 -1.39458,0.259071 -0.41616,0.173633 -0.76894,0.412033 -1.05833,0.71658 -0.28663,0.30179 -0.50987,0.661458 -0.66697,1.080382 -0.15434,0.416167 -0.23151,0.859896 -0.23151,1.333941 0,0.496093 0.0799,0.953602 0.24253,1.372526 0.16123,0.416167 0.39137,0.775835 0.68902,1.080382 0.29766,0.30179 0.65044,0.540191 1.05834,0.716579 0.41065,0.176389 0.8654,0.264584 1.3615,0.264584 0.49609,0 0.94533,-0.0882 1.35048,-0.264584 0.40789,-0.176388 0.75792,-0.414789 1.05282,-0.716579 0.29765,-0.304547 0.52916,-0.664215 0.69453,-1.080382 0.16536,-0.418924 0.24804,-0.876433 0.24804,-1.372526 z m 0,0"
       id="path17"
       style="fill:#000000;fill-opacity:1;stroke-width:0.352778" />
    <path
       d="m 123.81533,92.918109 6.14054,-6.201172 c 0.22737,-0.220486 0.45199,-0.460265 0.67248,-0.722092 0.22049,-0.260449 0.41479,-0.531923 0.58429,-0.815798 0.16812,-0.282498 0.30041,-0.581532 0.39687,-0.898481 0.0951,-0.319705 0.14332,-0.6463 0.14332,-0.981164 0,-0.440972 -0.0772,-0.837847 -0.23151,-1.190624 -0.15434,-0.352778 -0.36794,-0.651812 -0.63941,-0.898481 -0.27285,-0.249425 -0.5898,-0.440973 -0.9536,-0.573264 -0.36105,-0.135048 -0.73725,-0.20395 -1.12999,-0.20395 -0.80891,0 -1.48829,0.250803 -2.0395,0.749653 -0.55122,0.500228 -0.90262,1.139638 -1.05282,1.918229 l -1.51033,-0.297656 c 0.10611,-0.518143 0.29765,-1.003212 0.57326,-1.455209 0.27561,-0.451996 0.61185,-0.840603 1.00873,-1.168576 0.39963,-0.326595 0.85576,-0.580154 1.36701,-0.760677 0.50987,-0.183279 1.06109,-0.275608 1.65365,-0.275608 0.60633,0 1.1796,0.08819 1.71979,0.264584 0.54019,0.173633 1.01423,0.434082 1.42213,0.782725 0.41066,0.350022 0.74001,0.781348 0.98668,1.295356 0.24942,0.511253 0.37482,1.107943 0.37482,1.79145 0,0.474045 -0.0689,0.917773 -0.20395,1.328429 -0.13229,0.407899 -0.3073,0.796506 -0.52365,1.163064 -0.21773,0.363802 -0.47404,0.713824 -0.7717,1.047309 -0.2949,0.334863 -0.60634,0.664214 -0.93707,0.986675 l -5.39639,5.3523 h 7.9375 v 1.35599 h -9.59115 z m 0,0"
       id="path13"
       style="fill:#000000;fill-opacity:1;stroke-width:0.352778" />
    <path
       d="m 135.61508,92.162944 1.37253,-0.617361 c 0.26734,0.621495 0.67248,1.116211 1.21267,1.482769 0.54295,0.367936 1.14791,0.551215 1.8135,0.551215 0.50299,0 0.97014,-0.08544 1.40009,-0.259071 0.4327,-0.176389 0.80477,-0.421679 1.11345,-0.738628 0.30868,-0.319705 0.5526,-0.697288 0.73312,-1.135504 0.17915,-0.436838 0.2701,-0.910883 0.2701,-1.422135 0,-0.551216 -0.0978,-1.048687 -0.29215,-1.493794 -0.19155,-0.443728 -0.45199,-0.82131 -0.78272,-1.129991 -0.33073,-0.30868 -0.7221,-0.547081 -1.17409,-0.71658 -0.452,-0.16812 -0.94671,-0.253559 -1.48277,-0.253559 -0.53744,0 -1.06936,0.07441 -1.59853,0.220486 -0.52641,0.14745 -1.02939,0.350022 -1.51033,0.606337 l 0.14332,-7.73355 h 7.64536 v 1.355989 h -6.23976 l -0.11576,4.641233 c 0.33073,-0.117133 0.67387,-0.20395 1.03078,-0.259071 0.35966,-0.05512 0.70831,-0.08268 1.04731,-0.08268 0.70831,0 1.35874,0.112999 1.9513,0.336241 0.59531,0.22462 1.1107,0.545703 1.54891,0.964627 0.43684,0.416167 0.77308,0.913639 1.00873,1.493793 0.2384,0.577398 0.35829,1.209918 0.35829,1.89618 0,0.724849 -0.11989,1.393197 -0.35829,2.006424 -0.23565,0.614605 -0.57189,1.143772 -1.00873,1.5875 -0.43821,0.445106 -0.96462,0.79375 -1.58198,1.047309 -0.61737,0.253559 -1.2926,0.380339 -2.02296,0.380339 -1.08865,0 -2.00643,-0.246669 -2.75608,-0.738629 -0.7469,-0.491959 -1.32154,-1.154796 -1.72531,-1.989887 z m 0,0"
       id="path15"
       style="fill:#000000;fill-opacity:1;stroke-width:0.352778" />
    <path
       d="m 153.85854,90.895149 h -6.86263 v -1.488281 l 6.35,-9.88329 h 1.98988 v 10.03763 h 2.20486 v 1.333941 h -2.20486 v 3.615972 h -1.47725 z m 0,-1.333941 v -8.323351 h -0.0496 l -5.22001,8.323351 z m 0,0"
       id="path11"
       style="fill:#000000;fill-opacity:1;stroke-width:0.352778" />
    <path
       d="m 163.80798,81.403222 -2.70647,2.315104 -0.94258,-1.063845 3.81441,-3.130903 h 1.35048 v 14.987543 h -1.51584 z m 0,0"
       id="path16"
       style="fill:#000000;fill-opacity:1;stroke-width:0.352778" />
    <rect
       style="fill:#000000;stroke:none;stroke-width:0.378576;stroke-dasharray:none"
       id="rect17"
       width="7.420424"
       height="1.6980926"
       x="60.627357"
       y="82.869461" />
    <rect
       style="fill:#000000;stroke:none;stroke-width:0.281887;stroke-dasharray:none"
       id="rect17-1"
       width="4.1140733"
       height="1.6980926"
       x="60.627357"
       y="85.424255" />
    <rect
       style="fill:#000000;stroke:none;stroke-width:0.281887;stroke-dasharray:none"
       id="rect17-1-7"
       width="4.1140733"
       height="1.6980926"
       x="60.627357"
       y="87.97905" />
  </g>
</svg>
