<svg class="railroad-diagram" height="214" viewBox="0 0 347.0 214" width="347.0" xmlns="http://www.w3.org/2000/svg" xmlns:xlink="http://www.w3.org/1999/xlink">
<g transform="translate(.5 .5)">
<g>
<path d="M20 105v20m10 -20v20m-10 -10h20" /></g><path d="M40 115h10" /><g>
<path d="M50 115h0.0" /><path d="M297.0 115h0.0" /><rect class="group-box" height="158" rx="10" ry="10" width="247" x="50" y="36"></rect><g>
<path d="M50.0 115h0.0" /><path d="M297.0 115h0.0" /><path d="M50.0 115a10 10 0 0 0 10 -10v-40a10 10 0 0 1 10 -10" /><g class="terminal ">
<path d="M70.0 55h0.0" /><path d="M277.0 55h0.0" /><rect height="22" rx="10" ry="10" width="207" x="70" y="44"></rect><text x="173.5" y="59">SimpleAttributeOperand</text></g><path d="M277.0 55a10 10 0 0 1 10 10v40a10 10 0 0 0 10 10" /><path d="M50.0 115h20" /><g>
<path d="M70.0 115h31.0" /><path d="M246.0 115h31.0" /><path d="M101.0 115a10 10 0 0 0 10 -10v-10a10 10 0 0 1 10 -10" /><g class="terminal ">
<path d="M121.0 85h0.0" /><path d="M226.0 85h0.0" /><rect height="22" rx="10" ry="10" width="105" x="121" y="74"></rect><text x="173.5" y="89">JSONString</text></g><path d="M226.0 85a10 10 0 0 1 10 10v10a10 10 0 0 0 10 10" /><path d="M101.0 115h20" /><g class="terminal ">
<path d="M121.0 115h12.75" /><path d="M213.25 115h12.75" /><rect height="22" rx="10" ry="10" width="79.5" x="133.75" y="104"></rect><text x="173.5" y="119">literal</text></g><path d="M226.0 115h20" /></g><path d="M277.0 115h20" /><path d="M50.0 115a10 10 0 0 1 10 10v40a10 10 0 0 0 10 10" /><g>
<path d="M70.0 175h11.75" /><path d="M265.25 175h11.75" /><g class="terminal ">
<path d="M81.75 175h0.0" /><path d="M127.25 175h0.0" /><rect height="22" rx="10" ry="10" width="45.5" x="81.75" y="164"></rect><text x="104.5" y="179">&quot;$&quot;</text></g><path d="M127.25 175h10" /><g>
<path d="M137.25 175h0.0" /><path d="M265.25 175h0.0" /><path d="M137.25 175a10 10 0 0 0 10 -10v-10a10 10 0 0 1 10 -10" /><g class="terminal ">
<path d="M157.25 145h0.0" /><path d="M245.25 145h0.0" /><rect height="22" rx="10" ry="10" width="88" x="157.25" y="134"></rect><text x="201.25" y="149">&quot;String&quot;</text></g><path d="M245.25 145a10 10 0 0 1 10 10v10a10 10 0 0 0 10 10" /><path d="M137.25 175h20" /><g class="terminal ">
<path d="M157.25 175h8.5" /><path d="M236.75 175h8.5" /><rect height="22" rx="10" ry="10" width="71" x="165.75" y="164"></rect><text x="201.25" y="179">Number</text></g><path d="M245.25 175h20" /></g></g><path d="M277.0 175a10 10 0 0 0 10 -10v-40a10 10 0 0 1 10 -10" /></g><g class="non-terminal ">
<path d="M50.0 28h0.0" /><path d="M109.0 28h0.0" /><text class="comment" x="79.5" y="33">Operand</text></g></g><path d="M297.0 115h10" /><path d="M 307.0 115 h 20 m -10 -10 v 20 m 10 -20 v 20"></path></g><style>/* <![CDATA[ */
	svg.railroad-diagram {
		background-color:hsl(30,20%,95%);
	}
	svg.railroad-diagram path {
		stroke-width:3;
		stroke:black;
		fill:rgba(0,0,0,0);
	}
	svg.railroad-diagram text {
		font:bold 14px monospace;
		text-anchor:middle;
	}
	svg.railroad-diagram text.label{
		text-anchor:start;
	}
	svg.railroad-diagram text.comment{
		font:italic 12px monospace;
	}
	svg.railroad-diagram rect{
		stroke-width:3;
		stroke:black;
		fill:hsl(120,100%,90%);
	}
	svg.railroad-diagram rect.group-box {
		stroke: gray;
		stroke-dasharray: 10 5;
		fill: none;
	}

/* ]]> */
</style></svg>