<svg class="railroad-diagram" height="112" viewBox="0 0 1087.0 112" width="1087.0" xmlns="http://www.w3.org/2000/svg" xmlns:xlink="http://www.w3.org/1999/xlink">
<g transform="translate(.5 .5)">
<g>
<path d="M20 54v20m10 -20v20m-10 -10h20" /></g><path d="M40 64h10" /><g>
<path d="M50 64h0.0" /><path d="M1037.0 64h0.0" /><rect class="group-box" height="56" rx="10" ry="10" width="987" x="50" y="36"></rect><g>
<path d="M50.0 64h10.0" /><path d="M1027.0 64h10.0" /><g>
<path d="M60.0 64h0.0" /><path d="M282.0 64h0.0" /><path d="M60.0 64a10 10 0 0 0 10 -10v0a10 10 0 0 1 10 -10" /><g>
<path d="M80.0 44h182.0" /></g><path d="M262.0 44a10 10 0 0 1 10 10v0a10 10 0 0 0 10 10" /><path d="M60.0 64h20" /><g>
<path d="M80.0 64h0.0" /><path d="M262.0 64h0.0" /><path d="M80.0 64h10" /><g>
<path d="M90.0 64h0.0" /><path d="M252.0 64h0.0" /><g class="terminal ">
<path d="M90.0 64h0.0" /><path d="M161.0 64h0.0" /><rect height="22" rx="10" ry="10" width="71" x="90" y="53"></rect><text x="125.5" y="68">TYPEID</text></g><path d="M161.0 64h10" /><path d="M171.0 64h10" /><g class="terminal ">
<path d="M181.0 64h0.0" /><path d="M252.0 64h0.0" /><rect height="22" rx="10" ry="10" width="71" x="181" y="53"></rect><text x="216.5" y="68">nodeId</text></g></g><path d="M252.0 64h10" /><path d="M90.0 64a10 10 0 0 0 -10 10v0a10 10 0 0 0 10 10" /><g>
<path d="M90.0 84h162.0" /></g><path d="M252.0 84a10 10 0 0 0 10 -10v0a10 10 0 0 0 -10 -10" /></g><path d="M262.0 64h20" /></g><path d="M282.0 64h10" /><g>
<path d="M292.0 64h0.0" /><path d="M505.0 64h0.0" /><g class="terminal ">
<path d="M292.0 64h0.0" /><path d="M346.0 64h0.0" /><rect height="22" rx="10" ry="10" width="54" x="292" y="53"></rect><text x="319" y="68">PATH</text></g><path d="M346.0 64h10" /><path d="M356.0 64h10" /><g class="terminal ">
<path d="M366.0 64h0.0" /><path d="M505.0 64h0.0" /><rect height="22" rx="10" ry="10" width="139" x="366" y="53"></rect><text x="435.5" y="68">&quot;relativePath&quot;</text></g></g><path d="M505.0 64h10" /><g>
<path d="M515.0 64h0.0" /><path d="M762.5 64h0.0" /><path d="M515.0 64a10 10 0 0 0 10 -10v0a10 10 0 0 1 10 -10" /><g>
<path d="M535.0 44h207.5" /></g><path d="M742.5 44a10 10 0 0 1 10 10v0a10 10 0 0 0 10 10" /><path d="M515.0 64h20" /><g>
<path d="M535.0 64h0.0" /><path d="M742.5 64h0.0" /><path d="M535.0 64h10" /><g>
<path d="M545.0 64h0.0" /><path d="M732.5 64h0.0" /><g class="terminal ">
<path d="M545.0 64h0.0" /><path d="M641.5 64h0.0" /><rect height="22" rx="10" ry="10" width="96.5" x="545" y="53"></rect><text x="593.25" y="68">ATTRIBUTE</text></g><path d="M641.5 64h10" /><path d="M651.5 64h10" /><g class="terminal ">
<path d="M661.5 64h0.0" /><path d="M732.5 64h0.0" /><rect height="22" rx="10" ry="10" width="71" x="661.5" y="53"></rect><text x="697" y="68">Number</text></g></g><path d="M732.5 64h10" /><path d="M545.0 64a10 10 0 0 0 -10 10v0a10 10 0 0 0 10 10" /><g>
<path d="M545.0 84h187.5" /></g><path d="M732.5 84a10 10 0 0 0 10 -10v0a10 10 0 0 0 -10 -10" /></g><path d="M742.5 64h20" /></g><g>
<path d="M762.5 64h0.0" /><path d="M1027.0 64h0.0" /><path d="M762.5 64a10 10 0 0 0 10 -10v0a10 10 0 0 1 10 -10" /><g>
<path d="M782.5 44h224.5" /></g><path d="M1007.0 44a10 10 0 0 1 10 10v0a10 10 0 0 0 10 10" /><path d="M762.5 64h20" /><g>
<path d="M782.5 64h0.0" /><path d="M1007.0 64h0.0" /><path d="M782.5 64h10" /><g>
<path d="M792.5 64h0.0" /><path d="M997.0 64h0.0" /><g class="terminal ">
<path d="M792.5 64h0.0" /><path d="M855.0 64h0.0" /><rect height="22" rx="10" ry="10" width="62.5" x="792.5" y="53"></rect><text x="823.75" y="68">INDEX</text></g><path d="M855.0 64h10" /><path d="M865.0 64h10" /><g class="terminal ">
<path d="M875.0 64h0.0" /><path d="M997.0 64h0.0" /><rect height="22" rx="10" ry="10" width="122" x="875" y="53"></rect><text x="936" y="68">NumericRange</text></g></g><path d="M997.0 64h10" /><path d="M792.5 64a10 10 0 0 0 -10 10v0a10 10 0 0 0 10 10" /><g>
<path d="M792.5 84h204.5" /></g><path d="M997.0 84a10 10 0 0 0 10 -10v0a10 10 0 0 0 -10 -10" /></g><path d="M1007.0 64h20" /></g></g><g class="non-terminal ">
<path d="M50.0 28h0.0" /><path d="M214.0 28h0.0" /><text class="comment" x="132" y="33">SimpleAttributeOperand</text></g></g><path d="M1037.0 64h10" /><path d="M 1047.0 64 h 20 m -10 -10 v 20 m 10 -20 v 20"></path></g><style>/* <![CDATA[ */
	svg.railroad-diagram {
		background-color:hsl(30,20%,95%);
	}
	svg.railroad-diagram path {
		stroke-width:3;
		stroke:black;
		fill:rgba(0,0,0,0);
	}
	svg.railroad-diagram text {
		font:bold 14px monospace;
		text-anchor:middle;
	}
	svg.railroad-diagram text.label{
		text-anchor:start;
	}
	svg.railroad-diagram text.comment{
		font:italic 12px monospace;
	}
	svg.railroad-diagram rect{
		stroke-width:3;
		stroke:black;
		fill:hsl(120,100%,90%);
	}
	svg.railroad-diagram rect.group-box {
		stroke: gray;
		stroke-dasharray: 10 5;
		fill: none;
	}

/* ]]> */
</style></svg>