<svg class="railroad-diagram" height="310" viewBox="0 0 367.0 310" width="367.0" xmlns="http://www.w3.org/2000/svg" xmlns:xlink="http://www.w3.org/1999/xlink">
<g transform="translate(.5 .5)">
<g>
<path d="M20 161v20m10 -20v20m-10 -10h20" /></g><path d="M40 171h10" /><g>
<path d="M50 171h0.0" /><path d="M317.0 171h0.0" /><rect class="group-box" height="254" rx="10" ry="10" width="267" x="50" y="36"></rect><g>
<path d="M50.0 171h0.0" /><path d="M317.0 171h0.0" /><path d="M50.0 171a10 10 0 0 0 10 -10v-72a10 10 0 0 1 10 -10" /><g>
<path d="M70.0 79h0.0" /><path d="M297.0 79h0.0" /><rect class="group-box" height="38" rx="10" ry="10" width="227" x="70" y="60"></rect><g class="terminal ">
<path d="M70.0 79h10.0" /><path d="M287.0 79h10.0" /><rect height="22" rx="10" ry="10" width="207" x="80" y="68"></rect><text x="183.5" y="83">SimpleAttributeOperand</text></g><g class="non-terminal ">
<path d="M70.0 52h0.0" /><path d="M234.0 52h0.0" /><text class="comment" x="152" y="57">SimpleAttributeOperand</text></g></g><path d="M297.0 79a10 10 0 0 1 10 10v72a10 10 0 0 0 10 10" /><path d="M50.0 171h20" /><g>
<path d="M70.0 171h41.0" /><path d="M256.0 171h41.0" /><rect class="group-box" height="68" rx="10" ry="10" width="145" x="111" y="122"></rect><g>
<path d="M111.0 171h0.0" /><path d="M256.0 171h0.0" /><path d="M111.0 171a10 10 0 0 0 10 -10v-10a10 10 0 0 1 10 -10" /><g class="terminal ">
<path d="M131.0 141h0.0" /><path d="M236.0 141h0.0" /><rect height="22" rx="10" ry="10" width="105" x="131" y="130"></rect><text x="183.5" y="145">JSONString</text></g><path d="M236.0 141a10 10 0 0 1 10 10v10a10 10 0 0 0 10 10" /><path d="M111.0 171h20" /><g class="terminal ">
<path d="M131.0 171h12.75" /><path d="M223.25 171h12.75" /><rect height="22" rx="10" ry="10" width="79.5" x="143.75" y="160"></rect><text x="183.5" y="175">literal</text></g><path d="M236.0 171h20" /></g><g class="non-terminal ">
<path d="M111.0 114h0.0" /><path d="M219.0 114h0.0" /><text class="comment" x="165" y="119">LiteralOperand</text></g></g><path d="M297.0 171h20" /><path d="M50.0 171a10 10 0 0 1 10 10v72a10 10 0 0 0 10 10" /><g>
<path d="M70.0 263h11.75" /><path d="M285.25 263h11.75" /><rect class="group-box" height="68" rx="10" ry="10" width="203.5" x="81.75" y="214"></rect><g>
<path d="M81.75 263h10.0" /><path d="M275.25 263h10.0" /><g class="terminal ">
<path d="M91.75 263h0.0" /><path d="M137.25 263h0.0" /><rect height="22" rx="10" ry="10" width="45.5" x="91.75" y="252"></rect><text x="114.5" y="267">&quot;$&quot;</text></g><path d="M137.25 263h10" /><g>
<path d="M147.25 263h0.0" /><path d="M275.25 263h0.0" /><path d="M147.25 263a10 10 0 0 0 10 -10v-10a10 10 0 0 1 10 -10" /><g class="terminal ">
<path d="M167.25 233h0.0" /><path d="M255.25 233h0.0" /><rect height="22" rx="10" ry="10" width="88" x="167.25" y="222"></rect><text x="211.25" y="237">&quot;String&quot;</text></g><path d="M255.25 233a10 10 0 0 1 10 10v10a10 10 0 0 0 10 10" /><path d="M147.25 263h20" /><g class="terminal ">
<path d="M167.25 263h8.5" /><path d="M246.75 263h8.5" /><rect height="22" rx="10" ry="10" width="71" x="175.75" y="252"></rect><text x="211.25" y="267">Number</text></g><path d="M255.25 263h20" /></g></g><g class="non-terminal ">
<path d="M81.75 206h0.0" /><path d="M189.75 206h0.0" /><text class="comment" x="135.75" y="211">ElementOperand</text></g></g><path d="M297.0 263a10 10 0 0 0 10 -10v-72a10 10 0 0 1 10 -10" /></g><g class="non-terminal ">
<path d="M50.0 28h0.0" /><path d="M109.0 28h0.0" /><text class="comment" x="79.5" y="33">Operand</text></g></g><path d="M317.0 171h10" /><path d="M 327.0 171 h 20 m -10 -10 v 20 m 10 -20 v 20"></path></g><style>/* <![CDATA[ */
	svg.railroad-diagram {
		background-color:hsl(30,20%,95%);
	}
	svg.railroad-diagram path {
		stroke-width:3;
		stroke:black;
		fill:rgba(0,0,0,0);
	}
	svg.railroad-diagram text {
		font:bold 14px monospace;
		text-anchor:middle;
	}
	svg.railroad-diagram text.label{
		text-anchor:start;
	}
	svg.railroad-diagram text.comment{
		font:italic 12px monospace;
	}
	svg.railroad-diagram rect{
		stroke-width:3;
		stroke:black;
		fill:hsl(120,100%,90%);
	}
	svg.railroad-diagram rect.group-box {
		stroke: gray;
		stroke-dasharray: 10 5;
		fill: none;
	}

/* ]]> */
</style></svg>